<?xml version="1.0" encoding="UTF-8"?>
<!DOCTYPE svg PUBLIC "-//W3C//DTD SVG 1.1//EN" "http://www.w3.org/Graphics/SVG/1.1/DTD/svg11.dtd">
<svg xmlns="http://www.w3.org/2000/svg" version="1.1" width="64px" height="64px" style="shape-rendering:geometricPrecision; text-rendering:geometricPrecision; image-rendering:optimizeQuality; fill-rule:evenodd; clip-rule:evenodd" xmlns:xlink="http://www.w3.org/1999/xlink">
<g><path style="opacity:0.997" fill="#ff3232" d="M 12.5,11.5 C 15.7766,11.2161 18.9433,11.5495 22,12.5C 22.4999,25.4957 22.6666,38.4957 22.5,51.5C 20.1432,51.6633 17.8098,51.4966 15.5,51C 13.6667,50.5 12.5,49.3333 12,47.5C 11.1888,35.4242 11.3554,23.4242 12.5,11.5 Z"/></g>
<g><path style="opacity:0.957" fill="#ff3232" d="M 25.5,11.5 C 34.5,11.5 43.5,11.5 52.5,11.5C 53.0288,15.1916 52.0288,18.3583 49.5,21C 45.2799,22.1039 40.9466,22.6039 36.5,22.5C 32.8333,22.3333 29.1667,22.1667 25.5,22C 22.8805,18.5019 22.8805,15.0019 25.5,11.5 Z"/></g>
<g><path style="opacity:0.989" fill="#28aae1" d="M 24.5,23.5 C 29.9747,25.4387 35.308,27.7721 40.5,30.5C 41.3857,31.325 41.719,32.325 41.5,33.5C 35.7551,35.7157 30.0885,37.8824 24.5,40C 23.1888,34.5004 23.1888,29.0004 24.5,23.5 Z"/></g>
</svg>
